<svg width="535" height="173" viewBox="0 0 535 173" fill="none" xmlns="http://www.w3.org/2000/svg">
<path d="M9 37L0 69V105L212.5 114L241.5 105L249 92L291.5 98L275 108L280 158L298 170L502.5 141.5L528.5 133.5L533.5 119.5L528.5 105L529 85L514.5 74.5L489 77.5L376 86.5L355.5 80L352.5 62L355.5 47V32L265.5 16.5L241.5 20.5L228 38.5L172 44V38.5H150.5V44L9 37Z" fill="#1DB90C"/>
<path d="M23.7404 100.75C21.3419 100.75 19.1432 100.175 17.1444 99.0256C15.1457 97.8263 13.5466 96.2523 12.3474 94.3035C11.1981 92.3047 10.6234 90.081 10.6234 87.6325V59.8994C10.6234 57.4509 11.1981 55.2522 12.3474 53.3034C13.5466 51.3046 15.1457 49.7306 17.1444 48.5813C19.1432 47.382 21.3419 46.7824 23.7404 46.7824C26.1889 46.7824 28.3876 47.382 30.3364 48.5813C32.3352 49.7306 33.9092 51.3046 35.0585 53.3034C36.2578 55.2522 36.8574 57.4509 36.8574 59.8994V68.1444H25.7642V59.2248C25.7642 58.6751 25.5643 58.2254 25.1646 57.8756C24.7648 57.4759 24.2901 57.276 23.7404 57.276C23.2407 57.276 22.791 57.4759 22.3912 57.8756C21.9915 58.2254 21.7916 58.6751 21.7916 59.2248V88.3821C21.7916 88.8818 21.9915 89.3315 22.3912 89.7312C22.791 90.131 23.2407 90.3309 23.7404 90.3309C24.2901 90.3309 24.7648 90.131 25.1646 89.7312C25.5643 89.3315 25.7642 88.8818 25.7642 88.3821V79.3875H36.8574V87.6325C36.8574 90.081 36.2578 92.3047 35.0585 94.3035C33.9092 96.2523 32.3352 97.8263 30.3364 99.0256C28.3876 100.175 26.1889 100.75 23.7404 100.75ZM52.1598 100H40.9916V47.5319H52.4597C55.208 47.5319 57.6815 48.1815 59.8801 49.4807C62.1288 50.73 63.9027 52.4289 65.2019 54.5776C66.5511 56.7263 67.2257 59.1748 67.2257 61.9232C67.2257 64.9713 66.4012 67.3948 64.7522 69.1937C63.1532 70.9926 61.2543 72.2419 59.0557 72.9415V74.0658C61.2543 74.4156 62.9783 75.4399 64.2275 77.1389C65.5267 78.7879 66.1763 80.9366 66.1763 83.585V100.075H55.0831V83.585C55.0831 83.0353 54.8832 82.5856 54.4834 82.2358C54.0837 81.836 53.609 81.6362 53.0593 81.6362H52.1598V100ZM52.1598 66.6453H53.584C54.2836 66.6453 54.8582 66.4204 55.3079 65.9707C55.8076 65.471 56.0575 64.8964 56.0575 64.2468V59.8994C56.0575 59.1998 55.8076 58.6252 55.3079 58.1754C54.8582 57.6757 54.2836 57.4259 53.584 57.4259H52.1598V66.6453ZM83.3877 100.75C80.9892 100.75 78.7905 100.175 76.7917 99.0256C74.7929 97.8263 73.1939 96.2523 71.9947 94.3035C70.8454 92.3047 70.2707 90.081 70.2707 87.6325V59.8994C70.2707 57.4509 70.8454 55.2522 71.9947 53.3034C73.1939 51.3046 74.7929 49.7306 76.7917 48.5813C78.7905 47.382 80.9892 46.7824 83.3877 46.7824C85.7863 46.7824 87.9849 47.382 89.9837 48.5813C91.9825 49.7306 93.5565 51.3046 94.7058 53.3034C95.9051 55.2522 96.5047 57.4509 96.5047 59.8994V76.6892H81.4389V88.3821C81.4389 88.8818 81.6138 89.3315 81.9636 89.7312C82.3633 90.131 82.8381 90.3309 83.3877 90.3309C83.9374 90.3309 84.3871 90.131 84.7369 89.7312C85.0867 89.3315 85.2616 88.8818 85.2616 88.3821V80.5119H96.5047V88.457C96.4048 90.7556 95.7302 92.8294 94.481 94.6782C93.2817 96.5271 91.7077 98.0012 89.7588 99.1005C87.86 100.2 85.7363 100.75 83.3877 100.75ZM81.4389 66.1956H85.2616V58.4003C85.2616 57.8506 85.0867 57.4009 84.7369 57.0511C84.3871 56.7013 83.9374 56.5264 83.3877 56.5264C82.8381 56.5264 82.3633 56.7013 81.9636 57.0511C81.6138 57.4009 81.4389 57.8506 81.4389 58.4003V66.1956ZM111.318 100.75C108.919 100.75 106.82 100.175 105.021 99.0256C103.272 97.8263 101.923 96.2523 100.974 94.3035C100.024 92.3047 99.5498 90.081 99.5498 87.6325V80.287C99.5498 77.8884 100.124 75.6898 101.274 73.691C102.473 71.6922 104.072 70.1182 106.071 68.9689C108.07 67.7696 110.268 67.17 112.667 67.17H114.691V57.5758C114.691 57.0261 114.491 56.5764 114.091 56.2266C113.691 55.8269 113.216 55.627 112.667 55.627C112.167 55.627 111.717 55.8269 111.318 56.2266C110.918 56.5764 110.718 57.0261 110.718 57.5758V65.2212H99.5498V59.8994C99.5498 57.4509 100.124 55.2522 101.274 53.3034C102.473 51.3046 104.072 49.7306 106.071 48.5813C108.07 47.382 110.268 46.7824 112.667 46.7824C115.115 46.7824 117.314 47.382 119.263 48.5813C121.262 49.7306 122.836 51.3046 123.985 53.3034C125.184 55.2522 125.784 57.4509 125.784 59.8994V100H117.914V97.3766H117.164C116.664 98.4759 115.84 99.3254 114.691 99.925C113.541 100.475 112.417 100.75 111.318 100.75ZM112.667 90.3309C113.216 90.3309 113.691 90.156 114.091 89.8062C114.491 89.4064 114.691 88.9317 114.691 88.3821V77.6636H112.667C112.167 77.6636 111.717 77.8635 111.318 78.2632C110.918 78.613 110.718 79.0627 110.718 79.6124V88.3821C110.718 88.9317 110.918 89.4064 111.318 89.8062C111.717 90.156 112.167 90.3309 112.667 90.3309ZM135.144 100V57.276H128.024V47.5319H153.508V57.276H146.387V100H135.144ZM158.035 45.2833V41.9853H169.353V45.2833H158.035ZM158.035 100V47.5319H169.353V100H158.035ZM180.591 100L173.845 48.6562V47.5319H185.014L186.438 85.0091H187.412L188.836 47.5319H200.079V48.6562L193.334 100H180.591ZM214.777 100.75C212.379 100.75 210.18 100.175 208.182 99.0256C206.183 97.8263 204.584 96.2523 203.384 94.3035C202.235 92.3047 201.66 90.081 201.66 87.6325V59.8994C201.66 57.4509 202.235 55.2522 203.384 53.3034C204.584 51.3046 206.183 49.7306 208.182 48.5813C210.18 47.382 212.379 46.7824 214.777 46.7824C217.176 46.7824 219.375 47.382 221.373 48.5813C223.372 49.7306 224.946 51.3046 226.096 53.3034C227.295 55.2522 227.895 57.4509 227.895 59.8994V76.6892H212.829V88.3821C212.829 88.8818 213.004 89.3315 213.353 89.7312C213.753 90.131 214.228 90.3309 214.777 90.3309C215.327 90.3309 215.777 90.131 216.127 89.7312C216.476 89.3315 216.651 88.8818 216.651 88.3821V80.5119H227.895V88.457C227.795 90.7556 227.12 92.8294 225.871 94.6782C224.671 96.5271 223.097 98.0012 221.149 99.1005C219.25 100.2 217.126 100.75 214.777 100.75ZM212.829 66.1956H216.651V58.4003C216.651 57.8506 216.476 57.4009 216.127 57.0511C215.777 56.7013 215.327 56.5264 214.777 56.5264C214.228 56.5264 213.753 56.7013 213.353 57.0511C213.004 57.4009 212.829 57.8506 212.829 58.4003V66.1956Z" fill="#322B2B"/>
<path d="M299.619 158.659C297.237 158.944 294.986 158.635 292.865 157.732C290.738 156.779 288.963 155.406 287.54 153.613C286.162 151.765 285.327 149.626 285.035 147.195L284.323 141.241L295.412 139.913L296.169 146.239C296.228 146.735 296.459 147.186 296.859 147.591C297.304 147.94 297.799 148.082 298.345 148.017C298.89 147.951 299.338 147.697 299.687 147.252C300.031 146.758 300.173 146.263 300.113 145.767C300.06 145.32 299.966 144.954 299.831 144.668C299.69 144.333 299.413 143.913 299.001 143.409L288.323 129.891C287.548 128.877 286.667 127.825 285.681 126.735C284.689 125.596 283.824 124.466 283.086 123.347C282.342 122.178 281.905 121.047 281.774 119.956L281.738 119.658C281.447 117.227 281.756 114.976 282.666 112.904C283.619 110.777 285.02 109.024 286.868 107.645C288.71 106.217 290.821 105.36 293.203 105.075C295.634 104.784 297.888 105.118 299.966 106.077C302.087 106.98 303.837 108.356 305.216 110.204C306.639 111.996 307.495 114.108 307.786 116.539L308.419 121.823L297.404 123.142L296.718 117.412C296.653 116.866 296.398 116.418 295.954 116.069C295.509 115.72 295.014 115.578 294.468 115.643C293.972 115.702 293.549 115.954 293.2 116.399C292.851 116.843 292.709 117.338 292.774 117.884C292.816 118.231 292.901 118.523 293.03 118.759C293.202 118.94 293.439 119.239 293.741 119.655L304.725 133.212C306.086 134.911 307.422 136.613 308.733 138.318C310.039 139.974 310.81 141.794 311.048 143.778L311.083 144.076C311.375 146.507 311.044 148.786 310.09 150.913C309.181 152.985 307.805 154.735 305.963 156.163C304.165 157.536 302.05 158.368 299.619 158.659ZM328.69 155.178C326.309 155.464 324.057 155.154 321.936 154.251C319.809 153.298 318.034 151.925 316.612 150.132C315.233 148.285 314.398 146.145 314.107 143.714L310.81 116.177C310.519 113.746 310.828 111.495 311.737 109.423C312.691 107.296 314.091 105.543 315.939 104.164C317.781 102.736 319.893 101.879 322.274 101.594C324.656 101.309 326.91 101.643 329.037 102.596C331.159 103.499 332.909 104.875 334.287 106.723C335.71 108.516 336.567 110.627 336.858 113.059L340.155 140.595C340.446 143.026 340.115 145.305 339.162 147.432C338.252 149.504 336.877 151.254 335.035 152.682C333.187 154.061 331.072 154.893 328.69 155.178ZM327.514 145.355C328.06 145.289 328.486 145.062 328.791 144.673C329.091 144.235 329.211 143.767 329.152 143.271L325.525 112.981C325.46 112.435 325.233 112.01 324.844 111.704C324.449 111.349 323.979 111.204 323.433 111.269C322.887 111.334 322.439 111.589 322.09 112.034C321.784 112.423 321.664 112.89 321.729 113.436L325.356 143.726C325.416 144.222 325.643 144.648 326.038 145.003C326.476 145.303 326.968 145.42 327.514 145.355ZM345.448 152.417L339.21 100.321L350.299 98.9933L355.388 141.489L365.137 140.321L366.286 149.922L345.448 152.417ZM382.4 148.747C380.018 149.033 377.767 148.723 375.646 147.82C373.518 146.867 371.744 145.494 370.321 143.702C368.942 141.854 368.107 139.714 367.816 137.283L363.049 97.4667L374.138 96.1389L378.986 136.625C379.051 137.171 379.306 137.618 379.75 137.968C380.195 138.317 380.665 138.462 381.161 138.403C381.707 138.337 382.154 138.082 382.504 137.638C382.853 137.194 382.995 136.698 382.93 136.153L378.082 95.6667L389.097 94.3478L393.864 134.164C394.155 136.595 393.824 138.874 392.871 141.002C391.962 143.073 390.586 144.823 388.744 146.252C386.946 147.624 384.831 148.456 382.4 148.747ZM406.882 145.061L401.802 102.64L394.732 103.487L393.574 93.8118L418.878 90.782L420.036 100.457L412.966 101.304L418.045 143.725L406.882 145.061ZM429.61 142.34L423.372 90.2439L434.61 88.8983L440.848 140.994L429.61 142.34ZM456.968 139.819C454.586 140.104 452.335 139.795 450.214 138.891C448.087 137.938 446.312 136.566 444.889 134.773C443.511 132.925 442.676 130.786 442.384 128.354L439.087 100.818C438.796 98.3868 439.105 96.1355 440.015 94.0638C440.968 91.9366 442.369 90.1837 444.217 88.8049C446.059 87.3765 448.17 86.5197 450.552 86.2346C452.933 85.9494 455.188 86.2834 457.315 87.2365C459.436 88.1401 461.186 89.5158 462.565 91.3638C463.988 93.1562 464.844 95.268 465.135 97.6991L468.432 125.236C468.724 127.667 468.393 129.946 467.439 132.073C466.53 134.145 465.154 135.895 463.312 137.323C461.464 138.702 459.349 139.534 456.968 139.819ZM455.792 129.995C456.337 129.93 456.763 129.703 457.069 129.314C457.369 128.875 457.489 128.408 457.429 127.912L453.803 97.6217C453.737 97.076 453.51 96.6502 453.121 96.3445C452.726 95.9892 452.256 95.8442 451.71 95.9095C451.165 95.9749 450.717 96.2298 450.368 96.6742C450.062 97.0631 449.942 97.5304 450.007 98.0762L453.634 128.366C453.693 128.862 453.92 129.288 454.315 129.644C454.754 129.943 455.246 130.061 455.792 129.995ZM473.726 137.058L467.488 84.9616L476.419 83.8923L485.195 103.601L486.312 103.467L483.861 83.0012L493.536 81.8428L499.774 133.939L490.843 135.008L482.066 115.299L480.95 115.433L483.401 135.899L473.726 137.058ZM516.637 132.674C514.255 132.96 512.004 132.65 509.883 131.747C507.756 130.794 505.981 129.421 504.558 127.629C503.18 125.781 502.345 123.641 502.054 121.21L501.341 115.256L512.43 113.928L513.187 120.254C513.247 120.75 513.477 121.201 513.877 121.606C514.322 121.955 514.817 122.097 515.363 122.032C515.908 121.967 516.356 121.712 516.705 121.267C517.049 120.773 517.191 120.278 517.132 119.782C517.078 119.335 516.984 118.969 516.849 118.683C516.708 118.348 516.431 117.928 516.019 117.424L505.341 103.907C504.566 102.892 503.685 101.84 502.699 100.75C501.707 99.611 500.842 98.4816 500.104 97.3621C499.36 96.193 498.923 95.0627 498.792 93.9712L498.756 93.6735C498.465 91.2423 498.775 88.991 499.684 86.9193C500.637 84.7921 502.038 83.0392 503.886 81.6604C505.728 80.232 507.839 79.3752 510.221 79.0901C512.652 78.799 514.907 79.133 516.984 80.092C519.105 80.9956 520.855 82.3713 522.234 84.2193C523.657 86.0117 524.513 88.1235 524.804 90.5546L525.437 95.8386L514.423 97.1575L513.736 91.4269C513.671 90.8811 513.416 90.4336 512.972 90.0842C512.527 89.7348 512.032 89.5927 511.486 89.6581C510.99 89.7175 510.567 89.9694 510.218 90.4139C509.869 90.8583 509.727 91.3534 509.792 91.8992C509.834 92.2465 509.919 92.5383 510.048 92.7745C510.22 92.9551 510.457 93.2538 510.759 93.6707L521.743 107.227C523.104 108.926 524.44 110.628 525.751 112.333C527.057 113.989 527.828 115.809 528.066 117.793L528.102 118.091C528.393 120.522 528.062 122.801 527.108 124.929C526.199 127 524.823 128.75 522.981 130.179C521.183 131.551 519.068 132.383 516.637 132.674Z" fill="#322B2B"/>
<path d="M255.481 79.5709C253.691 79.399 252.067 78.7914 250.611 77.7481C249.205 76.7095 248.099 75.4236 247.292 73.8904C246.49 72.3075 246.175 70.6207 246.347 68.83L250.494 25.63L261.387 26.6756L257.412 68.0849C257.336 68.8808 257.671 69.3145 258.417 69.3861C259.213 69.4625 259.649 69.1028 259.725 68.3069L263.7 26.8976L274.444 27.9289L270.469 69.3382C270.393 70.1341 270.728 70.5678 271.474 70.6394C272.27 70.7158 272.706 70.3561 272.782 69.5602L276.757 28.1509L287.725 29.2036L283.578 72.4037C283.406 74.1944 282.801 75.7928 281.762 77.1991C280.778 78.5605 279.472 79.6148 277.845 80.3621C276.217 81.1094 274.433 81.39 272.493 81.2038C271.647 81.1226 270.667 80.8779 269.551 80.4697C268.436 80.0614 267.409 79.5111 266.472 78.8187C265.584 78.1311 265.009 77.3229 264.747 76.3942L264.001 76.3225C263.517 77.1797 262.774 77.8613 261.771 78.3675C260.819 78.8785 259.756 79.2283 258.583 79.4169C257.46 79.6103 256.426 79.6616 255.481 79.5709ZM298.686 83.718C296.299 83.4888 294.165 82.7067 292.285 81.3717C290.41 79.9869 288.969 78.2673 287.961 76.2128C287.008 74.1134 286.648 71.845 286.882 69.4077L289.532 41.8015C289.766 39.3641 290.548 37.2304 291.879 35.4004C293.263 33.5253 295.005 32.1113 297.105 31.1582C299.209 30.1554 301.455 29.7686 303.843 29.9977C306.23 30.2269 308.361 31.0339 310.236 32.4186C312.116 33.7537 313.533 35.4709 314.486 37.5704C315.493 39.6248 315.88 41.8707 315.646 44.308L314.042 61.021L299.045 59.5815L297.928 71.2209C297.88 71.7183 298.011 72.1827 298.321 72.614C298.681 73.0502 299.134 73.2945 299.682 73.347C300.229 73.3995 300.695 73.2435 301.082 72.879C301.468 72.5145 301.685 72.0836 301.733 71.5862L302.485 63.7519L313.677 64.8262L312.918 72.735C312.599 75.0136 311.729 77.0133 310.309 78.7344C308.938 80.4602 307.231 81.7772 305.186 82.6853C303.19 83.5982 301.024 83.9424 298.686 83.718ZM300.048 49.1359L303.853 49.5012L304.598 41.7416C304.65 41.1944 304.519 40.73 304.204 40.3484C303.89 39.9668 303.459 39.7498 302.912 39.6972C302.364 39.6447 301.875 39.7735 301.444 40.0834C301.062 40.3982 300.845 40.8292 300.793 41.3763L300.048 49.1359ZM315.574 84.5861L320.588 32.358L333.645 33.6113C336.082 33.8453 338.216 34.6274 340.046 35.9576C341.93 37.2429 343.354 38.8855 344.317 40.8855C345.329 42.8902 345.718 45.1113 345.484 47.5486C345.36 48.8418 344.958 50.1586 344.277 51.4988C343.601 52.7893 342.715 53.9091 341.62 54.8582C340.525 55.8072 339.262 56.4139 337.831 56.6781L337.759 57.4242C339.722 58.4159 341.215 59.8643 342.237 61.7696C343.308 63.6796 343.753 65.5797 343.572 67.4698L342.942 74.0357C342.708 76.473 341.898 78.6291 340.514 80.5042C339.183 82.3343 337.466 83.7507 335.362 84.7535C333.312 85.7114 331.069 86.0733 328.631 85.8394L315.574 84.5861ZM330.136 49.765L331.032 49.851C331.828 49.9274 332.528 49.6934 333.132 49.149C333.791 48.5597 334.166 47.7925 334.257 46.8474C334.347 45.9023 334.125 45.0778 333.59 44.3739C333.105 43.6747 332.465 43.287 331.669 43.2106L330.774 43.1246L330.136 49.765ZM327.615 76.0283L328.138 76.0784C329.033 76.1643 329.852 75.7409 330.594 74.8082C331.336 73.8754 331.774 72.7127 331.908 71.3199L332.237 67.8878C332.375 66.4453 332.167 65.2205 331.611 64.2134C331.06 63.1565 330.336 62.5851 329.441 62.4991L328.919 62.449L327.615 76.0283Z" fill="#322B2B"/>
</svg>
