<svg width="618" height="408" viewBox="0 0 618 408" fill="none" xmlns="http://www.w3.org/2000/svg">
<path d="M10 80L0 138V312L216 332L254 392L574 404L618 392L606 246L574 216L416 228L428 190L394 70L10 80Z" fill="#1DB90C"/>
<path d="M59.1555 301.858C52.2966 301.858 45.9139 300.143 40.0075 296.714C34.2917 293.284 29.6238 288.807 26.0038 283.281C22.3837 277.566 20.5737 271.278 20.5737 264.419V98.9462H62.2992V257.56C62.2992 260.609 63.7282 262.133 66.5861 262.133C69.6346 262.133 71.1588 260.609 71.1588 257.56V98.9462H112.313V257.56C112.313 260.609 113.742 262.133 116.6 262.133C119.648 262.133 121.172 260.609 121.172 257.56V98.9462H163.184V264.419C163.184 271.278 161.469 277.566 158.039 283.281C154.8 288.807 150.228 293.284 144.321 296.714C138.415 300.143 131.746 301.858 124.316 301.858C121.077 301.858 117.266 301.286 112.884 300.143C108.502 299 104.406 297.285 100.595 294.999C96.9752 292.713 94.4984 289.855 93.1647 286.425H90.3068C88.7826 289.855 86.2104 292.713 82.5904 294.999C79.1609 297.285 75.2551 299 70.873 300.143C66.6814 301.286 62.7756 301.858 59.1555 301.858ZM224.646 301.858C215.501 301.858 207.118 299.667 199.497 295.285C191.876 290.712 185.779 284.71 181.206 277.28C176.824 269.659 174.633 261.18 174.633 251.844V146.102C174.633 136.766 176.824 128.383 181.206 120.952C185.779 113.331 191.876 107.329 199.497 102.947C207.118 98.3746 215.501 96.0883 224.646 96.0883C233.792 96.0883 242.175 98.3746 249.796 102.947C257.417 107.329 263.419 113.331 267.801 120.952C272.374 128.383 274.66 136.766 274.66 146.102V210.119H217.216V254.702C217.216 256.608 217.883 258.322 219.216 259.847C220.741 261.371 222.551 262.133 224.646 262.133C226.742 262.133 228.457 261.371 229.791 259.847C231.124 258.322 231.791 256.608 231.791 254.702V224.694H274.66V254.988C274.279 263.752 271.707 271.659 266.944 278.709C262.371 285.758 256.369 291.379 248.939 295.571C241.699 299.762 233.601 301.858 224.646 301.858ZM217.216 170.108H231.791V140.386C231.791 138.29 231.124 136.575 229.791 135.242C228.457 133.908 226.742 133.241 224.646 133.241C222.551 133.241 220.741 133.908 219.216 135.242C217.883 136.575 217.216 138.29 217.216 140.386V170.108ZM289.061 299V98.9462H339.075C348.41 98.9462 356.794 101.137 364.224 105.519C371.845 109.711 377.847 115.427 382.229 122.667C386.802 129.907 389.088 138.195 389.088 147.531C389.088 152.484 388.04 157.629 385.944 162.963C383.848 168.108 380.895 172.68 377.085 176.681C373.274 180.682 368.702 183.445 363.367 184.969V187.827C371.178 190.876 377.371 195.829 381.943 202.688C386.706 209.547 389.088 216.597 389.088 223.837V248.987C389.088 258.322 386.802 266.801 382.229 274.422C377.847 281.853 371.845 287.854 364.224 292.427C356.794 296.809 348.41 299 339.075 299H289.061ZM331.644 161.534H335.073C338.122 161.534 340.694 160.391 342.79 158.105C345.076 155.628 346.219 152.58 346.219 148.96C346.219 145.34 345.076 142.291 342.79 139.814C340.694 137.337 338.122 136.099 335.073 136.099H331.644V161.534ZM331.644 262.133H333.645C337.074 262.133 340.027 260.228 342.504 256.417C344.981 252.607 346.219 248.034 346.219 242.699V229.553C346.219 224.027 344.981 219.455 342.504 215.835C340.027 212.024 337.074 210.119 333.645 210.119H331.644V262.133Z" fill="#322B2B"/>
<path d="M264.131 378L248.283 257.376V254.735H274.521L277.867 342.781H280.156L283.502 254.735H309.916V257.376L294.067 378H264.131ZM344.446 379.761C338.811 379.761 333.646 378.411 328.95 375.711C324.254 372.893 320.498 369.195 317.68 364.617C314.98 359.921 313.63 354.697 313.63 348.945V283.79C313.63 278.038 314.98 272.872 317.68 268.294C320.498 263.598 324.254 259.9 328.95 257.2C333.646 254.382 338.811 252.974 344.446 252.974C350.081 252.974 355.247 254.382 359.943 257.2C364.638 259.9 368.336 263.598 371.037 268.294C373.854 272.872 375.263 278.038 375.263 283.79V323.235H339.868V350.706C339.868 351.879 340.279 352.936 341.101 353.875C342.04 354.814 343.155 355.284 344.446 355.284C345.738 355.284 346.794 354.814 347.616 353.875C348.438 352.936 348.849 351.879 348.849 350.706V332.216H375.263V350.882C375.028 356.282 373.443 361.154 370.508 365.497C367.691 369.841 363.993 373.304 359.414 375.887C354.953 378.47 349.964 379.761 344.446 379.761ZM339.868 298.582H348.849V280.268C348.849 278.977 348.438 277.92 347.616 277.098C346.794 276.277 345.738 275.866 344.446 275.866C343.155 275.866 342.04 276.277 341.101 277.098C340.279 277.92 339.868 278.977 339.868 280.268V298.582ZM410.374 378H384.136V254.735H411.079C417.535 254.735 423.346 256.261 428.512 259.313C433.795 262.248 437.962 266.239 441.014 271.287C444.184 276.335 445.769 282.088 445.769 288.544C445.769 295.706 443.832 301.399 439.958 305.626C436.201 309.852 431.74 312.787 426.575 314.43V317.072C431.74 317.893 435.79 320.3 438.725 324.291C441.777 328.166 443.304 333.214 443.304 339.436V378.176H417.242V339.436C417.242 338.144 416.772 337.088 415.833 336.266C414.894 335.327 413.779 334.857 412.487 334.857H410.374V378ZM410.374 299.638H413.72C415.363 299.638 416.714 299.11 417.77 298.054C418.944 296.88 419.531 295.53 419.531 294.003V283.79C419.531 282.146 418.944 280.796 417.77 279.74C416.714 278.566 415.363 277.979 413.72 277.979H410.374V299.638ZM452.923 378V254.735H483.739C489.491 254.735 494.657 256.143 499.235 258.961C503.931 261.661 507.629 265.359 510.329 270.055C513.147 274.633 514.555 279.799 514.555 285.551V347.184C514.555 352.936 513.147 358.16 510.329 362.856C507.629 367.434 503.931 371.132 499.235 373.95C494.657 376.65 489.491 378 483.739 378H452.923ZM479.161 355.284H484.091C485.265 355.284 486.204 354.873 486.909 354.051C487.731 353.23 488.141 352.29 488.141 351.234V281.677C488.141 280.62 487.731 279.681 486.909 278.859C486.204 278.038 485.265 277.627 484.091 277.627H479.161V355.284ZM553.213 379.761C547.578 379.761 542.413 378.411 537.717 375.711C533.021 372.893 529.265 369.195 526.447 364.617C523.747 359.921 522.397 354.697 522.397 348.945V283.79C522.397 278.038 523.747 272.872 526.447 268.294C529.265 263.598 533.021 259.9 537.717 257.2C542.413 254.382 547.578 252.974 553.213 252.974C558.848 252.974 564.014 254.382 568.71 257.2C573.406 259.9 577.104 263.598 579.804 268.294C582.621 272.872 584.03 278.038 584.03 283.79V323.235H548.635V350.706C548.635 351.879 549.046 352.936 549.868 353.875C550.807 354.814 551.922 355.284 553.213 355.284C554.505 355.284 555.561 354.814 556.383 353.875C557.205 352.936 557.616 351.879 557.616 350.706V332.216H584.03V350.882C583.795 356.282 582.21 361.154 579.275 365.497C576.458 369.841 572.76 373.304 568.181 375.887C563.72 378.47 558.731 379.761 553.213 379.761ZM548.635 298.582H557.616V280.268C557.616 278.977 557.205 277.92 556.383 277.098C555.561 276.277 554.505 275.866 553.213 275.866C551.922 275.866 550.807 276.277 549.868 277.098C549.046 277.92 548.635 278.977 548.635 280.268V298.582Z" fill="#F1FFF6"/>
</svg>
